<svg width="267" height="80" viewBox="0 0 267 80" fill="none" xmlns="http://www.w3.org/2000/svg">
<path d="M154 78.7398C171.252 74.2994 184 58.6384 184 40C184 21.3616 171.252 5.70061 154 1.26018C157.196 0.437534 160.547 4.10887e-06 164 4.10887e-06C186.091 4.10887e-06 204 17.9086 204 40C204 62.0914 186.091 80 164 80C160.547 80 157.196 79.5625 154 78.7398Z" fill="white"/>
<path d="M114 78.7398C131.252 74.2994 144 58.6384 144 40C144 21.3616 131.252 5.70061 114 1.26018C117.196 0.437534 120.547 4.10887e-06 124 4.10887e-06C146.091 4.10887e-06 164 17.9086 164 40C164 62.0914 146.091 80 124 80C120.547 80 117.196 79.5625 114 78.7398Z" fill="white"/>
<path d="M124 40C124 62.0914 106.091 80 83.9997 80C82.5645 80 81.1469 79.9244 79.7507 79.777C91.191 78.194 100 68.3757 100 56.5C100 43.5213 89.4787 33 76.5 33H67L67 23.5C67 17.3114 64.6078 11.6814 60.6977 7.48452C67.2594 2.77373 75.3057 4.10887e-06 83.9997 4.10887e-06C106.091 4.10887e-06 124 17.9086 124 40Z" fill="white"/>
<path d="M47 33V23.5C47 10.5213 36.4787 2.05444e-06 23.5 0C10.5213 -1.13463e-06 2.25932e-06 10.5213 0 23.5V56.5C-1.80931e-07 57.3112 0.0410985 58.1127 0.121327 58.9027C1.32476 70.7528 11.3325 80 23.5 80L56.5 80C69.4787 80 80 69.4787 80 56.5C80 43.5213 69.4787 33 56.5 33H47Z" fill="white"/>
<path d="M199.099 77.0522C213.706 71.0938 224 56.7491 224 40C224 23.2502 213.705 8.90496 199.097 2.94703C202.447 1.08452 206.3 0.0172144 210.4 0.000212479L210.5 4.10887e-06L243.5 9.04826e-06C256.479 1.01829e-05 267 10.5213 267 23.5C267 36.4787 256.479 47 243.5 47H234V56.6667C234 69.5533 223.387 80 210.5 80C206.376 80 202.484 78.9299 199.099 77.0522Z" fill="white"/>
</svg>
